<?xml version="1.0" standalone="no"?>
<!DOCTYPE svg PUBLIC "-//W3C//DTD SVG 20010904//EN"
 "http://www.w3.org/TR/2001/REC-SVG-20010904/DTD/svg10.dtd">
<svg version="1.0" xmlns="http://www.w3.org/2000/svg"
 width="954.000000pt" height="954.000000pt" viewBox="0 0 954.000000 954.000000"
 preserveAspectRatio="xMidYMid meet">
<metadata>
Created by potrace 1.14, written by Peter Selinger 2001-2017
</metadata>
<g transform="translate(0.000000,954.000000) scale(0.100000,-0.100000)"
fill="#000000" stroke="none">
<path d="M4539 8286 c-2 -2 -49 -7 -103 -11 -55 -4 -109 -8 -120 -10 -12 -2
-43 -6 -71 -10 -90 -11 -205 -30 -295 -49 -14 -3 -36 -8 -50 -11 -14 -3 -34
-7 -45 -9 -112 -22 -479 -136 -536 -167 -13 -7 -25 -12 -26 -11 -4 2 -35 -9
-80 -29 -24 -10 -45 -19 -48 -19 -2 0 -35 -14 -72 -32 -38 -17 -70 -32 -73
-33 -3 0 -57 -27 -120 -60 -63 -32 -125 -63 -137 -69 -13 -6 -23 -15 -23 -19
0 -5 -4 -6 -9 -3 -5 3 -14 -1 -21 -9 -7 -8 -17 -15 -22 -15 -5 0 -34 -16 -64
-35 -30 -19 -57 -35 -60 -35 -2 0 -10 -5 -17 -10 -7 -6 -57 -40 -112 -76 -55
-37 -126 -86 -158 -110 -31 -24 -61 -44 -67 -44 -5 0 -13 -6 -17 -13 -4 -7
-26 -26 -48 -42 -22 -17 -42 -32 -45 -35 -3 -3 -27 -23 -55 -45 -27 -22 -62
-52 -78 -67 -15 -16 -29 -28 -32 -28 -18 0 -379 -362 -480 -481 -122 -144
-176 -213 -256 -320 -52 -69 -101 -136 -109 -149 -8 -12 -27 -40 -42 -61 -16
-21 -28 -43 -28 -49 0 -5 -3 -10 -7 -10 -5 0 -24 -27 -42 -60 -19 -33 -39 -60
-43 -60 -4 0 -8 -5 -8 -10 0 -6 -26 -55 -58 -108 -32 -53 -74 -126 -92 -162
-19 -36 -38 -68 -43 -71 -5 -3 -8 -9 -8 -13 0 -3 -32 -72 -72 -153 -40 -82
-94 -200 -120 -263 -27 -63 -52 -124 -57 -135 -36 -83 -48 -115 -43 -115 3 0
1 -6 -5 -12 -5 -7 -35 -89 -67 -183 -31 -93 -60 -177 -63 -185 -3 -8 -6 -19
-8 -25 -1 -5 -23 -84 -48 -175 -26 -91 -48 -174 -51 -185 -2 -11 -6 -29 -9
-40 -17 -75 -68 -325 -71 -345 -2 -14 -6 -40 -9 -57 -3 -18 -8 -48 -11 -65 -3
-18 -7 -44 -10 -58 -3 -14 -7 -45 -10 -70 -9 -76 -16 -134 -20 -158 -2 -13 -7
-53 -10 -90 -3 -37 -8 -81 -10 -98 -26 -191 -26 -1043 0 -1169 2 -11 7 -51 10
-90 7 -91 23 -224 36 -300 6 -33 12 -76 14 -95 2 -19 4 -35 5 -35 2 0 9 -33
14 -70 2 -16 12 -72 21 -122 l18 -93 4627 0 4627 0 13 73 c8 39 15 77 16 82 1
6 5 26 8 45 4 19 8 46 11 60 3 14 7 41 10 60 3 19 7 46 10 60 2 14 7 44 10 68
3 23 7 60 10 82 23 181 25 204 42 425 15 199 8 804 -12 1015 -11 115 -16 158
-20 195 -8 71 -15 119 -20 145 -2 14 -6 47 -10 75 -3 27 -7 57 -9 65 -3 8 -7
31 -10 50 -6 38 -22 127 -31 175 -14 71 -76 343 -85 375 -6 19 -13 42 -15 50
-8 36 -28 109 -42 151 -8 25 -16 55 -18 65 -2 10 -4 20 -5 22 -2 1 -3 5 -5 10
-1 4 -4 14 -7 22 -4 8 -26 76 -51 150 -55 164 -132 362 -192 495 -7 17 -15 35
-16 40 -4 15 -217 435 -239 470 -10 17 -28 48 -40 70 -31 56 -162 269 -170
275 -4 3 -13 16 -20 30 -7 14 -37 58 -67 97 -29 40 -53 77 -53 82 0 5 -3 11
-8 13 -4 2 -33 37 -64 78 -30 41 -65 86 -77 100 -11 14 -24 30 -28 35 -22 30
-99 123 -119 145 -104 112 -124 134 -124 137 0 6 -253 254 -319 313 -35 30
-75 66 -91 80 -15 14 -42 36 -60 50 -17 14 -44 35 -58 48 -54 46 -310 232
-320 232 -6 0 -12 3 -14 8 -3 8 -96 72 -104 72 -3 0 -25 14 -49 30 -24 17 -48
30 -54 30 -6 0 -11 4 -11 9 0 5 -8 11 -17 15 -10 3 -43 20 -73 37 -89 51 -318
164 -415 204 -49 20 -99 41 -110 46 -66 28 -353 126 -390 133 -5 1 -16 5 -22
9 -7 5 -13 6 -13 3 0 -2 -30 4 -67 15 -38 11 -81 21 -98 24 -16 2 -45 9 -63
14 -18 5 -35 10 -37 10 -3 0 -18 2 -33 5 -15 3 -43 8 -62 11 -19 3 -60 10 -90
15 -62 11 -110 17 -190 26 -30 3 -77 8 -105 11 -57 6 -561 14 -566 9z"/>
</g>
</svg>
